<?xml version="1.0" encoding="utf-8"?>
<svg width="18px" height="17px" viewbox="0 0 18 17" version="1.1" xmlns:xlink="http://www.w3.org/1999/xlink" xmlns="http://www.w3.org/2000/svg">
  <defs>
    <filter id="filter_1">
      <feColorMatrix in="SourceGraphic" type="matrix" values="0 0 0 0 0.91764706 0 0 0 0 0.53333336 0 0 0 0 0.1764706 0 0 0 1 0" />
    </filter>
  </defs>
  <g id="carrinho" filter="url(#filter_1)">
    <path d="M17.9639 10.9473C17.8788 10.664 17.5936 10.5123 17.3306 10.6041L9.37135 13.4454C8.99357 12.787 8.3195 12.352 7.54913 12.352C7.5195 12.352 7.48987 12.352 7.46024 12.352C7.4232 12.352 7.38246 12.356 7.34542 12.36L4.18616 2.1081C4.14542 1.97242 4.05283 1.86068 3.93431 1.79683L0.723202 0.0569241C0.475054 -0.0747661 0.175054 0.0289898 0.0528315 0.296361C-0.0693907 0.563732 0.0269056 0.886971 0.275054 1.01866L3.30468 2.6588L6.39728 12.7151C6.24172 12.8229 6.09728 12.9506 5.96765 13.1022C5.57876 13.5572 5.37876 14.1478 5.40098 14.7623C5.44913 16.0074 6.38987 16.9811 7.54542 16.9811C7.57505 16.9811 7.60468 16.9811 7.63431 16.9811C8.81579 16.9292 9.73802 15.8518 9.68987 14.5748C9.68987 14.5428 9.68616 14.5069 9.68246 14.475L17.6454 11.6337C17.9084 11.5379 18.0491 11.2306 17.9639 10.9473ZM7.59357 15.8996C6.95654 15.9276 6.42691 15.3968 6.40098 14.7184C6.38987 14.3872 6.49728 14.0719 6.70468 13.8325C6.91209 13.5891 7.19357 13.4494 7.50098 13.4374C7.51579 13.4374 7.53431 13.4374 7.54913 13.4374C8.16394 13.4374 8.66765 13.9562 8.69357 14.6227C8.71579 15.2971 8.2232 15.8717 7.59357 15.8996Z" id="Shape" fill="#000000" stroke="none" />
    <path d="M2.55076 11.6667C2.62113 11.8942 2.81743 12.0379 3.02483 12.0379C3.07669 12.0379 3.12854 12.0299 3.18039 12.0099L10.8693 9.26438C10.9952 9.22048 11.0989 9.12072 11.1582 8.99302C11.2174 8.86532 11.2285 8.71766 11.1878 8.58198L8.66558 0.369307C8.62483 0.233627 8.53224 0.12189 8.41372 0.0580398C8.2952 -0.00580998 8.15817 -0.0177818 8.03224 0.0261149L4.1878 1.40288L4.1878 1.40288L4.1878 1.40288L0.343352 2.77565C0.0803891 2.86743 -0.0603516 3.17471 0.0248336 3.45804L2.55076 11.6667ZM4.02854 2.59208L4.63965 4.58339C4.71002 4.81086 4.90631 4.95452 5.11372 4.95452C5.16557 4.95452 5.21743 4.94654 5.26928 4.92658C5.53224 4.8348 5.67298 4.52752 5.5878 4.24419L4.97669 2.25288L7.87298 1.21931L10.0841 8.41039L3.34335 10.8167L1.13224 3.62964L4.02854 2.59208Z" transform="translate(5.909424 0.17053223)" id="Shape" fill="#000000" stroke="none" />
  </g>
</svg>