<?xml version="1.0" encoding="utf-8"?>
<svg width="19px" height="18px" viewbox="0 0 19 18" version="1.1" xmlns:xlink="http://www.w3.org/1999/xlink" xmlns="http://www.w3.org/2000/svg">
  <g id="coracao-(1)">
    <path d="M16.1969 2.61399C14.4025 0.927273 12.0255 0 9.5 0C6.97449 0 4.59753 0.927273 2.80309 2.61399C0.996914 4.31329 0 6.58322 0 9C0 10.9636 0.684156 12.8811 1.93128 14.4378C3.1784 15.9944 3.11975 15.8601 4.59753 16.7077C6.07531 17.5552 7.7642 18 9.5 18C12.0255 18 14.4025 17.0727 16.1969 15.386C18.0031 13.6867 19 11.4168 19 9C19 6.58322 18.0031 4.31329 16.1969 2.61399ZM9.5 16.993C7.83457 16.993 6.21996 16.5441 4.82428 15.6923C4.75391 15.6504 2.93601 14.1357 2.81872 13.9972C1.59115 12.5664 0.938272 10.8378 0.938272 9C0.938272 4.59021 4.77737 1.00699 9.5 1.00699C14.2226 1.00699 18.0617 4.59441 18.0617 9C18.0617 13.4098 14.2226 16.993 9.5 16.993Z" id="Shape" fill="#000000" stroke="none" />
    <path d="M6.21996 0.0041958C5.57881 0.0041958 4.97284 0.239161 4.48416 0.667133C3.99547 0.234965 3.3856 0 2.74444 0C2.01337 0 1.32531 0.306294 0.80535 0.864336C0.285391 1.42238 0 2.16084 0 2.94965C0 3.73427 0.285391 4.47692 0.80535 5.03077L3.90556 8.35804C4.05802 8.52168 4.26523 8.61399 4.48416 8.61399C4.70309 8.61399 4.90638 8.52168 5.06276 8.35804L8.15905 5.03496C8.67901 4.47692 8.9644 3.73846 8.9644 2.94965C8.9644 2.16084 8.67901 1.42238 8.15905 0.864336C7.643 0.310489 6.95494 0.0041958 6.21996 0.0041958ZM7.49444 4.32587L4.48416 7.55664L1.47387 4.31748C1.13374 3.95245 0.942181 3.46154 0.942181 2.94545C0.942181 2.42937 1.12984 1.93846 1.46996 1.57343C1.81008 1.20839 2.26358 1.00699 2.74444 1.00699C3.22922 1.00699 3.68272 1.20839 4.02284 1.57762L4.15185 1.71608C4.24177 1.81259 4.35905 1.86294 4.48416 1.86294C4.60926 1.86294 4.72654 1.80839 4.81646 1.71608L4.94156 1.58182C5.28169 1.21259 5.73909 1.01119 6.21996 1.01119C6.70082 1.01119 7.15432 1.21259 7.49835 1.57762C7.83848 1.94266 8.02613 2.43357 8.02613 2.94965C8.02613 3.46993 7.83848 3.95664 7.49444 4.32587Z" transform="translate(5.0158463 5.2070007)" id="Shape" fill="#000000" stroke="none" />
  </g>
</svg>