<?xml version="1.0" encoding="utf-8"?>
<svg width="10px" height="18px" viewbox="0 0 10 18" version="1.1" xmlns:xlink="http://www.w3.org/1999/xlink" xmlns="http://www.w3.org/2000/svg">
  <defs>
    <filter id="filter_1">
      <feColorMatrix in="SourceGraphic" type="matrix" values="0 0 0 0 0.91764706 0 0 0 0 0.53333336 0 0 0 0 0.1764706 0 0 0 1 0" />
    </filter>
  </defs>
  <g id="facebook-(3)" filter="url(#filter_1)">
    <path d="M6.14726 18L3.33931 18C2.87029 18 2.48876 17.6083 2.48876 17.1269L2.48876 10.6252L0.850546 10.6252C0.381528 10.6252 0 10.2334 0 9.75201L0 6.96602C0 6.48454 0.381528 6.09288 0.850546 6.09288L2.48876 6.09288L2.48876 4.69775C2.48876 3.31444 2.9119 2.13753 3.71228 1.29446C4.51627 0.447556 5.63985 0 6.96155 0L9.10303 0.00357054C9.57125 0.00439453 9.95211 0.396057 9.95211 0.876709L9.95211 3.46344C9.95211 3.94492 9.57071 4.33658 9.10183 4.33658L7.66 4.33713C7.22028 4.33713 7.1083 4.42763 7.08436 4.45537C7.0449 4.50137 6.99794 4.63142 6.99794 4.99054L6.99794 6.09274L8.99347 6.09274C9.1437 6.09274 9.28925 6.13078 9.41433 6.20247C9.68416 6.35724 9.85191 6.64989 9.85191 6.96616L9.85084 9.75215C9.85084 10.2334 9.46931 10.625 9.00029 10.625L6.99794 10.625L6.99794 17.1269C6.99794 17.6083 6.61628 18 6.14726 18L6.14726 18ZM3.5167 16.9448L5.96987 16.9448L5.96987 10.1527C5.96987 9.83125 6.22472 9.56978 6.53775 9.56978L8.82291 9.56978L8.82384 7.14812L6.53762 7.14812C6.22458 7.14812 5.96987 6.88664 5.96987 6.56516L5.96987 4.99054C5.96987 4.57828 6.01068 4.10944 6.31381 3.75705C6.68009 3.33105 7.25733 3.28189 7.65973 3.28189L8.92418 3.28134L8.92418 1.05853L6.96075 1.05524C4.83666 1.05524 3.5167 2.45105 3.5167 4.69775L3.5167 6.56516C3.5167 6.88651 3.26199 7.14812 2.94895 7.14812L1.02793 7.14812L1.02793 9.56978L2.94895 9.56978C3.26199 9.56978 3.5167 9.83125 3.5167 10.1527L3.5167 16.9448Z" id="Shape" fill="#000000" stroke="none" />
  </g>
</svg>