<?xml version="1.0" encoding="utf-8"?>
<svg width="18px" height="18px" viewbox="0 0 18 18" version="1.1" xmlns:xlink="http://www.w3.org/1999/xlink" xmlns="http://www.w3.org/2000/svg">
  <defs>
    <filter id="filter_1">
      <feColorMatrix in="SourceGraphic" type="matrix" values="0 0 0 0 0.91764706 0 0 0 0 0.53333336 0 0 0 0 0.1764706 0 0 0 1 0" />
    </filter>
  </defs>
  <g id="instagram-(1)" filter="url(#filter_1)">
    <path d="M13.1276 0L4.87244 0C2.18573 0 0 2.18573 0 4.87244L0 13.1277C0 15.8143 2.18573 18 4.87244 18L13.1277 18C15.8143 18 18 15.8143 18 13.1277L18 4.87244C18 2.18573 15.8143 9.99201e-16 13.1276 0ZM16.9448 13.1277C16.9448 15.2324 15.2324 16.9448 13.1276 16.9448L4.87244 16.9448C2.76759 16.9448 1.05524 15.2324 1.05524 13.1277L1.05524 4.87244C1.05524 2.76759 2.76759 1.05524 4.87244 1.05524L13.1277 1.05524C15.2324 1.05524 16.9448 2.76759 16.9448 4.87244L16.9448 13.1277Z" id="Shape" fill="#000000" stroke="none" />
    <path d="M4.92174 9.99201e-16C2.20784 9.99201e-16 0 2.20784 0 4.92174C0 7.63564 2.20784 9.84348 4.92174 9.84348C7.63564 9.84348 9.84348 7.63564 9.84348 4.92174C9.84348 2.20784 7.63564 0 4.92174 9.99201e-16ZM4.92174 8.78824C2.78984 8.78824 1.05524 7.05377 1.05524 4.92174C1.05524 2.78984 2.78984 1.05524 4.92174 1.05524C7.05377 1.05524 8.78824 2.78984 8.78824 4.92174C8.78824 7.05377 7.05377 8.78824 4.92174 8.78824Z" transform="translate(4.078369 4.078247)" id="Shape" fill="#000000" stroke="none" />
    <path d="M1.45432 0C0.652313 0 0 0.652451 0 1.45432C0 2.25632 0.652313 2.90877 1.45432 2.90877C2.25632 2.90877 2.90877 2.25632 2.90877 1.45432C2.90877 0.652313 2.25632 0 1.45432 0ZM1.45432 1.85339C1.23431 1.85339 1.05524 1.67432 1.05524 1.45432C1.05524 1.23418 1.23431 1.05524 1.45432 1.05524C1.67445 1.05524 1.85353 1.23418 1.85353 1.45432C1.85353 1.67432 1.67445 1.85339 1.45432 1.85339Z" transform="translate(12.585205 2.3303223)" id="Shape" fill="#000000" stroke="none" />
  </g>
</svg>