<?xml version="1.0" encoding="utf-8"?>
<svg width="18px" height="13px" viewbox="0 0 18 13" version="1.1" xmlns:xlink="http://www.w3.org/1999/xlink" xmlns="http://www.w3.org/2000/svg">
  <g id="youtube-(1)">
    <path d="M5.04783 2.16004L1.07895 0.0863828C0.85074 -0.0328485 0.581003 -0.0283986 0.357319 0.0981619C0.133498 0.224853 0 0.448657 0 0.697067L0 4.80878C0 5.05601 0.132675 5.27942 0.354989 5.40624C0.47108 5.47247 0.599781 5.50571 0.728756 5.50571C0.846902 5.50571 0.965324 5.47783 1.07429 5.42182L5.04331 3.38389C5.27892 3.26283 5.42599 3.02895 5.42708 2.77334C5.42804 2.51773 5.28276 2.2828 5.04783 2.16004L5.04783 2.16004ZM1.05277 4.29154L1.05277 1.21849L4.01905 2.76837L1.05277 4.29154Z" transform="translate(6.699951 3.5690918)" id="Shape" fill="#000000" stroke="none" />
    <path d="M17.8328 3.06664L17.832 3.05879C17.8167 2.92071 17.6653 1.69253 17.04 1.06785C16.3173 0.333088 15.4979 0.243829 15.1039 0.201031C15.0713 0.197497 15.0414 0.194225 15.0147 0.190822L14.9833 0.187681C12.6083 0.0227731 9.02152 0.000261759 8.98561 0.00013088L8.98246 0L8.9793 0.00013088C8.94339 0.000261759 5.35663 0.0227731 2.96025 0.187681L2.92859 0.190822C2.9031 0.194094 2.875 0.197105 2.84444 0.200507C2.45491 0.243436 1.64433 0.332827 0.919545 1.09415C0.324013 1.71217 0.151864 2.91403 0.134183 3.0491L0.132127 3.06664C0.126782 3.12409 0 4.49192 0 5.8651L0 7.14877C0 8.52196 0.126782 9.88978 0.132127 9.94737L0.133087 9.956C0.1483 10.0919 0.299616 11.2975 0.922012 11.9225C1.60156 12.6326 2.4608 12.7266 2.92297 12.7771C2.99603 12.7851 3.05894 12.7919 3.10184 12.7991L3.14337 12.8046C4.51467 12.9292 8.81415 12.9906 8.99644 12.9931L9.00192 12.9932L9.0074 12.9931C9.04331 12.9929 12.6299 12.9704 15.0049 12.8055L15.0363 12.8024C15.0663 12.7986 15.1001 12.7952 15.1371 12.7915C15.5244 12.7522 16.3306 12.6707 17.0454 11.9197C17.6409 11.3016 17.8132 10.0997 17.8307 9.96477L17.8328 9.94724C17.8381 9.88965 17.965 8.52196 17.965 7.14877L17.965 5.8651C17.9649 4.49192 17.8381 3.12422 17.8328 3.06664L17.8328 3.06664ZM16.9121 7.14877C16.9121 8.41974 16.7959 9.72867 16.785 9.84881C16.7403 10.1798 16.5587 10.9402 16.2685 11.2414C15.8211 11.7114 15.3616 11.758 15.026 11.7919C14.9855 11.7959 14.9479 11.7998 14.9139 11.8039C12.6168 11.9625 9.16543 11.9869 9.00644 11.9878C8.82813 11.9853 4.59156 11.9234 3.26206 11.8055C3.19394 11.7949 3.12034 11.7867 3.04276 11.7784C2.64926 11.7353 2.11061 11.6764 1.69641 11.2414L1.68668 11.2314C1.40159 10.9478 1.22519 10.2367 1.18037 9.85274C1.17201 9.76191 1.05277 8.43754 1.05277 7.14877L1.05277 5.8651C1.05277 4.59557 1.16872 3.28809 1.17996 3.16545C1.23328 2.77556 1.41831 2.06122 1.69641 1.7725C2.15748 1.28825 2.64364 1.23459 2.96519 1.19912C2.99589 1.19572 3.02453 1.19257 3.05099 1.1893C5.38158 1.02989 8.85773 1.0062 8.98246 1.00529C9.10718 1.00607 12.5821 1.02989 14.892 1.1893C14.9204 1.1927 14.9513 1.19611 14.9846 1.19977C15.3154 1.23576 15.8152 1.29021 16.274 1.75745L16.2782 1.76177C16.5633 2.04538 16.7397 2.76889 16.7845 3.16061C16.7925 3.24634 16.9121 4.57358 16.9121 5.8651L16.9121 7.14877Z" id="Shape" fill="#000000" stroke="none" />
  </g>
</svg>