<svg xmlns="http://www.w3.org/2000/svg" width="22" height="20" viewBox="0 0 22 20">
    <g fill="none">
        <path fill="#E4AF18" d="M11 17.308c-5.447 0-9.862-1.14-9.862-2.308v2.69C1.14 18.859 5.555 20 11 20s9.859-1.142 9.862-2.31V15c0 1.168-4.415 2.308-9.862 2.308"/>
        <path fill="#F4BF1A" d="M9.862 13.077C4.416 13.077 0 11.937 0 10.769v2.691c.003 1.168 4.417 2.31 9.862 2.31s9.86-1.142 9.862-2.31v-2.69c0 1.168-4.415 2.307-9.862 2.307"/>
        <path fill="#E4AF18" d="M12.138 8.846c-5.447 0-9.862-1.14-9.862-2.308V9.23c.003 1.168 4.417 2.31 9.862 2.31s9.859-1.142 9.862-2.31V6.54c0 1.168-4.416 2.307-9.862 2.307"/>
        <path fill="#FFD949" d="M19.724 1.973c0 1.168-4.415 2.258-9.862 2.258C4.416 4.23 0 3.14 0 1.973S4.416 0 9.862 0c5.447 0 9.862.805 9.862 1.973"/>
        <path fill="#F4BF1A" d="M9.862 4.23C4.416 4.23 0 3.093 0 1.924v2.69c.003 1.169 4.417 2.31 9.862 2.31s9.86-1.141 9.862-2.31v-2.69c0 1.169-4.415 2.308-9.862 2.308"/>
        <path fill="#DCA815" d="M1.517 3.105v2.69c.23.087.483.17.759.25V3.352c-.276-.079-.528-.162-.759-.248M17.448 3.353v2.691c.276-.079.528-.162.759-.248v-2.69c-.23.086-.483.168-.759.247M3.414 3.633v2.69c.243.052.496.1.758.146V3.78c-.262-.047-.515-.095-.758-.146M15.552 3.778V6.47c.263-.047.516-.095.758-.146V3.633c-.242.05-.495.1-.758.145M5.31 3.95V6.64c.248.032.5.062.759.09V4.038c-.26-.027-.511-.057-.759-.09M13.655 4.04v2.69c.26-.027.511-.057.759-.088V3.95c-.248.032-.5.062-.759.09M7.207 4.138V6.83c.25.018.502.033.759.046V4.184c-.257-.013-.51-.028-.76-.046M11.759 4.184v2.692c.256-.013.509-.028.758-.046V4.138c-.249.018-.502.033-.758.046M9.862 4.23c-.127 0-.253 0-.38-.002v2.693l.38.002.38-.002V4.228c-.127.002-.253.003-.38.003"/>
        <path fill="#C49214" d="M3.793 7.72v2.691c.23.086.483.17.759.249V7.969c-.276-.08-.528-.162-.759-.248M19.724 7.969v2.69c.276-.079.528-.162.759-.248v-2.69c-.23.086-.483.169-.759.248M5.69 8.248v2.691c.242.051.495.1.758.146V8.393c-.263-.045-.516-.094-.758-.145M17.828 8.393v2.692c.262-.046.515-.095.758-.146V8.25c-.243.05-.496.099-.758.144M7.586 8.565v2.692c.248.032.5.062.759.09V8.654c-.26-.028-.511-.058-.759-.09M15.931 8.654v2.692c.26-.027.511-.057.759-.09v-2.69c-.248.032-.5.062-.759.088M9.483 8.753v2.692c.249.018.502.034.758.047V8.799c-.256-.012-.509-.028-.758-.046M14.034 8.8v2.692c.257-.013.51-.029.76-.047V8.753c-.25.018-.503.034-.76.046M12.138 8.846l-.38-.002v2.692l.38.002c.127 0 .253 0 .38-.002V8.844l-.38.002"/>
        <path fill="#DCA815" d="M1.517 11.952v2.69c.23.086.483.169.759.248V12.2c-.276-.08-.528-.163-.759-.248M17.448 12.2v2.69c.276-.079.528-.162.759-.248v-2.69c-.23.086-.483.168-.759.248M3.414 12.479v2.691c.243.051.496.1.758.145v-2.69c-.262-.047-.515-.095-.758-.146M15.552 12.624v2.692c.263-.046.516-.095.758-.146v-2.691c-.242.051-.495.1-.758.145M5.31 12.796v2.692c.248.032.5.062.759.089v-2.692c-.26-.027-.511-.057-.759-.089M13.655 12.885v2.692c.26-.027.511-.057.759-.09v-2.69c-.248.031-.5.061-.759.088M7.207 12.984v2.692c.25.018.502.034.759.046V13.03c-.257-.013-.51-.028-.76-.046M11.759 13.03v2.692c.256-.012.509-.028.758-.046v-2.692c-.249.018-.502.033-.758.046M9.862 13.077l-.38-.002v2.692l.38.002c.127 0 .253 0 .38-.002v-2.692l-.38.002"/>
        <path fill="#C49214" d="M2.655 16.182v2.69c.23.087.483.17.759.25V16.43c-.276-.079-.528-.162-.759-.248M18.586 16.43v2.691c.276-.08.528-.162.759-.248v-2.69c-.23.085-.483.168-.759.247M4.552 16.71v2.69c.242.052.495.1.758.146v-2.691c-.263-.046-.516-.094-.758-.145M16.69 16.855v2.692c.263-.047.516-.095.758-.146V16.71c-.242.05-.495.1-.758.145M6.448 17.027v2.691c.248.033.5.063.759.09v-2.692c-.26-.027-.511-.057-.759-.09M14.793 17.116v2.692c.26-.028.511-.058.759-.09v-2.691c-.248.032-.5.062-.759.089M8.345 17.215v2.692c.249.018.502.033.758.046v-2.692c-.256-.013-.509-.028-.758-.046M12.897 17.26v2.693c.256-.013.509-.028.758-.046v-2.692c-.249.018-.502.033-.758.046M11 17.308c-.127 0-.253-.001-.38-.003v2.693L11 20l.38-.002v-2.693c-.127.002-.253.003-.38.003"/>
        <path fill="#FCC62D" d="M19.425 13.99c-1.077.96-4.95 1.78-9.563 1.78-3.607 0-6.76-.502-8.48-1.18-.158.146-.244.3-.244.46 0 1.168 4.415 2.258 9.862 2.258s9.862-1.09 9.862-2.258c0-.403-.525-.763-1.437-1.06"/>
        <path fill="#FFD949" d="M12.138 11.538c-5.012 0-9.148-.967-9.776-2.031C.89 9.845 0 10.295 0 10.819c0 1.168 4.416 2.258 9.862 2.258 5.447 0 9.862-1.09 9.862-2.258 0-.051-.011-.102-.028-.152-1.81.516-4.523.871-7.558.871"/>
        <path fill="#FCC62D" d="M19.342 5.211c-1.18.93-4.976 1.712-9.48 1.712-2.908 0-5.522-.326-7.327-.808-.168.15-.26.308-.26.473 0 1.169 4.416 2.258 9.863 2.258 5.446 0 9.862-1.09 9.862-2.258 0-.558-1.01-1.033-2.658-1.377"/>
    </g>
</svg>
