<svg xmlns="http://www.w3.org/2000/svg" width="17" height="14" viewBox="0 0 17 14">
    <g fill="#FFF">
        <path d="M13.829 3.177h-.975L9.879.226c-.306-.294-.794-.289-1.095.01-.3.3-.304.783-.008 1.087l1.869 1.854h-5.9l1.87-1.854c.304-.304.304-.794 0-1.097-.307-.301-.8-.301-1.107 0l-2.974 2.95h-.972C.7 3.178 0 3.872 0 4.727v.14c0 .773.575 1.428 1.347 1.535l.743 4.984c.118.759.774 1.32 1.547 1.324h8.114c.774-.003 1.43-.565 1.547-1.324l.743-4.984c.771-.108 1.345-.762 1.347-1.535v-.14c0-.41-.163-.805-.455-1.095-.293-.291-.69-.455-1.104-.454zM9.217.883C9.187.854 9.171.815 9.17.774c0-.04.017-.08.047-.108.062-.06.16-.06.222 0l2.53 2.51h-.44L9.217.884zM5.952.666c.03-.03.07-.047.111-.047.042 0 .082.017.11.047.03.028.047.067.048.108 0 .041-.017.08-.047.109L3.862 3.177h-.44L5.951.666zm6.727 10.63c-.07.454-.464.79-.928.793H3.64c-.464-.002-.857-.339-.928-.794l-.728-4.879H13.41l-.731 4.88zm2.087-6.43c-.002.513-.42.929-.937.93H1.562c-.517-.001-.936-.417-.937-.93v-.14c.001-.512.42-.928.937-.93h12.264c.517.002.935.418.937.93l.003.14z" transform="translate(.849 .711)"/>
        <path d="M7.664 7.343c-.172 0-.312.139-.312.31v3.156c0 .171.14.31.312.31.173 0 .313-.139.313-.31V7.653c0-.171-.14-.31-.313-.31zM4.696 7.631c-.014-.17-.165-.298-.337-.284-.173.014-.301.163-.288.334l.25 3.156c.014.16.15.285.313.285h.025c.082-.007.16-.045.213-.108.054-.063.08-.145.074-.227l-.25-3.156zM10.97 7.346c-.172-.012-.322.115-.338.285l-.25 3.156c-.012.17.116.32.288.335h.025c.163-.001.298-.125.312-.285l.25-3.156c.007-.082-.02-.164-.073-.227-.054-.063-.131-.102-.214-.108z" transform="translate(.849 .711)"/>
    </g>
</svg>
