<svg xmlns="http://www.w3.org/2000/svg" width="12" height="26" viewBox="0 0 12 26">
    <g fill="#78102B">
        <path d="M9.225 15.082c-.044-.028-.134-.08-.134-.212V3.051C9.091 1.37 7.701 0 5.993 0S2.895 1.369 2.895 3.051v11.831c0 .11-.09.172-.134.2a5.86 5.86 0 00-2.749 4.956c0 3.249 2.683 5.89 5.981 5.89s5.981-2.642 5.981-5.89a5.86 5.86 0 00-2.75-4.956zm-3.232 9.773c-2.696 0-4.89-2.16-4.89-4.817 0-1.782.994-3.412 2.594-4.252l.067-.035s.222-.087.222-.436V3.05c0-1.09.9-1.977 2.007-1.977C7.1 1.074 8 1.961 8 3.051V15.32c0 .345.235.439.235.439l.054.028c1.6.84 2.594 2.47 2.594 4.252 0 2.656-2.193 4.817-4.89 4.817z"/>
        <path d="M6.956 17.773c-.053-.02-.163-.053-.163-.232V5.407a.794.794 0 00-.8-.788c-.442 0-.8.353-.8.788V17.54c0 .173-.12.216-.179.238a2.692 2.692 0 00-1.748 2.507c0 1.48 1.223 2.686 2.727 2.686 1.504 0 2.727-1.205 2.727-2.686a2.692 2.692 0 00-1.764-2.513z"/>
    </g>
</svg>
