<svg xmlns="http://www.w3.org/2000/svg" width="22" height="26" viewBox="0 0 22 26">
    <g fill="#FFF" fill-rule="nonzero">
        <path d="M11 3.047c-2.83 0-5.133 2.392-5.133 5.332 0 1.825.886 3.505 2.37 4.492 1.516 1.009 3.376 1.116 5.105.29a.774.774 0 0 0 .36-1.01.722.722 0 0 0-.973-.374c-1.264.604-2.613.535-3.7-.188a3.836 3.836 0 0 1-1.696-3.21c0-2.1 1.645-3.809 3.667-3.809s3.667 1.709 3.667 3.809c0 .42-.33.762-.734.762-.37 0-.714-.291-.733-.75v-.012c0-1.26-.987-2.285-2.2-2.285S8.8 7.119 8.8 8.379c0 1.26.987 2.285 2.2 2.285.563 0 1.077-.221 1.467-.584.39.363.903.584 1.466.584 1.213 0 2.2-1.025 2.2-2.285 0-2.94-2.302-5.332-5.133-5.332zm.723 5.454a.743.743 0 0 1-.723.64c-.404 0-.733-.342-.733-.762s.329-.762.733-.762c.376 0 .686.296.728.675a.792.792 0 0 0-.005.21z"/>
        <path d="M22 10.003a.782.782 0 0 0-.215-.538l-2.718-2.823V.762c0-.421-.329-.762-.734-.762H3.667c-.405 0-.734.341-.734.762v5.88L.215 9.465l-.007.009a.78.78 0 0 0-.208.529v13.711C0 24.978.988 26 2.2 26h17.6c1.214 0 2.2-1.026 2.2-2.285v-13.71-.002zm-2.933-1.207l1.163 1.208-1.163 1.208V8.796zM4.4 6.957V1.523h13.2v11.212l-3.97 4.124H8.37L4.4 12.735V6.957zM2.933 8.796v2.416L1.77 10.004l1.163-1.208zM1.467 23.399V11.843L7.03 17.62 1.467 23.4zm1.037 1.078l5.866-6.094h5.26l5.866 6.094H2.504zm18.03-1.078l-5.564-5.778 5.563-5.778v11.556z"/>
    </g>
</svg>
