<svg xmlns="http://www.w3.org/2000/svg" width="22" height="31" viewBox="0 0 22 31">
    <g fill="#FFF" fill-rule="nonzero">
        <path d="M11 0C4.935 0 0 4.889 0 10.898a10.8 10.8 0 0 0 1.642 5.731l8.732 13.942c.167.267.462.429.779.429h.007a.918.918 0 0 0 .78-.442l8.508-14.076A10.81 10.81 0 0 0 22 10.898C22 4.89 17.065 0 11 0zm7.875 15.55L11.14 28.347 3.2 15.672a9.009 9.009 0 0 1-1.379-4.774c0-5.007 4.125-9.094 9.179-9.094 5.055 0 9.173 4.087 9.173 9.094a9.01 9.01 0 0 1-1.298 4.652z"/>
        <path d="M11 5.45c-3.033 0-5.5 2.444-5.5 5.448 0 2.986 2.427 5.45 5.5 5.45 3.11 0 5.5-2.497 5.5-5.45 0-3.004-2.467-5.449-5.5-5.449zm0 9.093c-2.032 0-3.679-1.636-3.679-3.645 0-2.003 1.657-3.644 3.679-3.644s3.673 1.641 3.673 3.644A3.658 3.658 0 0 1 11 14.543z"/>
    </g>
</svg>
