<svg xmlns="http://www.w3.org/2000/svg" width="35" height="49" viewBox="0 0 35 49">
    <g fill="none" fill-rule="evenodd">
        <path fill="#010002" fill-rule="nonzero" d="M17.462 0c-9.389 0-17 7.699-17 17.195 0 .727.057 1.436.145 2.138 1.453 13.432 15.75 28.912 15.75 28.912.255.289.501.467.738.595l.012.007.476.153.476-.153.012-.007c.237-.128.482-.315.737-.595 0 0 14.092-15.508 15.511-28.942.085-.694.143-1.396.143-2.11C34.458 7.698 26.85 0 17.462 0zm0 28.256c-6.029 0-10.935-4.963-10.935-11.06 0-6.098 4.906-11.061 10.935-11.061 6.028 0 10.932 4.963 10.932 11.06 0 6.098-4.904 11.06-10.932 11.06z"/>
        <circle cx="17.462" cy="17" r="12" fill="#FFF"/>
    </g>
</svg>
