<svg xmlns="http://www.w3.org/2000/svg" width="26" height="26" viewBox="0 0 26 26">
    <path fill="#FFF" fill-rule="nonzero" d="M25.331 19.177L22.1 15.945a2.288 2.288 0 0 0-3.232 0l-1.47 1.469a1.734 1.734 0 0 1-2.448 0L8.581 11.04a1.73 1.73 0 0 1 0-2.45l1.47-1.468c.887-.887.899-2.333-.002-3.233L6.82.669a2.287 2.287 0 0 0-3.23-.003L2.41 1.834c-3.214 3.213-3.214 8.442 0 11.655L12.5 23.584a8.237 8.237 0 0 0 11.655 0l1.175-1.175a2.288 2.288 0 0 0 0-3.232zM4.663 1.746a.763.763 0 0 1 1.079 0l3.23 3.222a.761.761 0 0 1 0 1.077l-.538.539-4.307-4.307.536-.531zm8.915 20.76L3.488 12.413a6.698 6.698 0 0 1-.42-9.04l4.294 4.295a3.252 3.252 0 0 0 .142 4.45l6.367 6.374a3.252 3.252 0 0 0 4.452.142l4.294 4.294a6.685 6.685 0 0 1-9.04-.42zm10.676-1.175l-.539.54-4.31-4.31.54-.54a.763.763 0 0 1 1.077 0l3.232 3.233a.763.763 0 0 1 0 1.077z"/>
</svg>
