<svg xmlns="http://www.w3.org/2000/svg" width="17" height="17" viewBox="0 0 17 17">
    <g fill="#C4996C">
        <path d="M7.486 0C3.36 0 0 3.359 0 7.486c0 4.129 3.359 7.487 7.486 7.487 4.129 0 7.487-3.358 7.487-7.487C14.973 3.36 11.615 0 7.486 0zm0 13.59c-3.365 0-6.104-2.738-6.104-6.104 0-3.365 2.739-6.104 6.104-6.104 3.366 0 6.105 2.739 6.105 6.104 0 3.366-2.739 6.105-6.105 6.105z"/>
        <path d="M16.798 15.82l-3.963-3.962c-.27-.27-.707-.27-.977 0s-.27.708 0 .977l3.962 3.963c.135.134.312.202.489.202s.354-.068.489-.202c.27-.27.27-.708 0-.978z"/>
    </g>
</svg>
