<?xml version="1.0" encoding="utf-8"?>
<svg width="119px" height="63px" viewbox="0 0 119 63" version="1.1" xmlns:xlink="http://www.w3.org/1999/xlink" xmlns="http://www.w3.org/2000/svg">
  <g id="Group">
    <path d="M18.1804 0C25.3839 0 31.8597 3.13971 36.3343 8.13333L35.6889 8.78421C31.3804 3.95578 25.1326 0.917977 18.1804 0.917977C11.2171 0.917977 4.96001 3.9656 0.650666 8.8074L0.645741 8.81279L0.645688 8.81279L0 8.16359L0.00407315 8.15896C4.47909 3.15035 10.9645 0 18.1804 0" transform="translate(41.303223 6.994873)" id="Fill-27" fill="#636463" fill-rule="evenodd" stroke="none" />
    <path d="M7.23584 0C11.2314 0 14.4717 3.26297 14.4717 7.28655C14.4717 12.6483 8.46747 18.5878 7.23584 18.5878C6.00412 18.5878 0 12.6483 0 7.28655C0 3.26297 3.24026 0 7.23584 0" transform="translate(52.247803 0)" id="Fill-28" fill="#EA882D" fill-rule="evenodd" stroke="none" />
    <path d="M5.80233 0C9.00628 0 11.6047 2.61659 11.6047 5.84292C11.6047 9.06943 9.00628 11.6859 5.80233 11.6859C2.59835 11.6859 0 9.06943 0 5.84292C0 2.61659 2.59835 0 5.80233 0" transform="translate(53.681396 1.4436035)" id="Fill-29" fill="#FFFFFE" fill-rule="evenodd" stroke="none" />
    <path d="M29.3078 29.2801C31.8726 28.9194 34.3637 28.733 37.3105 28.7004C54.0221 28.5156 81.6212 34.0694 98.3272 32.4157C100.621 32.1886 102.564 31.7532 104.153 31.1112C104.958 30.7862 105.59 30.4156 106.048 30.0016C106.505 29.5875 106.856 29.1558 107.096 28.7088C107.337 28.2616 107.498 27.8221 107.578 27.3917C107.658 26.9612 107.726 26.5594 107.781 26.1873C107.836 25.8151 107.913 25.4943 108.009 25.2261C108.106 24.958 108.289 24.7689 108.557 24.6609C108.825 24.5527 109.153 24.6977 109.54 25.0965C109.926 25.4951 110.266 26.0462 110.558 26.7487C110.85 27.4513 111.038 28.2686 111.121 29.2001C111.255 30.6868 110.845 32.7892 109.788 33.8975C108.926 34.8008 107.699 35.5747 106.11 36.2166C105.078 36.6333 103.762 36.9117 102.164 37.0509C100.566 37.1902 98.7547 37.2336 96.7332 37.182C79.6944 36.7477 50.9111 32.568 33.8998 31.5993C31.7543 31.4773 29.8196 31.4501 28.0972 31.5187C27.3606 32.6116 26.5043 33.6987 25.5288 34.7798C24.5533 35.8609 23.5116 36.8694 22.4041 37.8052C21.2967 38.7409 20.1668 39.5654 19.0147 40.2784C17.8625 40.9913 16.7454 41.5188 15.6633 41.8606C14.8066 42.1311 13.9682 42.3212 13.148 42.4307C12.328 42.54 11.5827 42.5323 10.9123 42.4075C10.2421 42.2826 9.66364 42.0351 9.17691 41.6652C8.69039 41.2954 8.34439 40.7812 8.13935 40.123C7.98382 39.6235 8.18644 38.9424 8.74721 38.0795C9.0976 37.5403 9.53711 36.9608 10.0656 36.3408C12.9081 33.029 19.2924 31.1383 23.8711 30.1646C24.4764 29.5037 24.893 29.002 25.4038 28.4014C26.2012 27.4639 26.8353 26.5778 27.3059 25.7435C27.7764 24.9091 28.0022 24.1833 27.9831 23.5659C27.9942 23.3629 27.9602 23.1742 27.8811 22.9997C27.3806 21.8957 26.0188 21.657 24.9125 21.6372C24.1282 21.6231 23.2829 21.6719 22.3767 21.7836C21.4706 21.8953 20.5505 22.0613 19.6162 22.2815C18.682 22.5018 17.8133 22.7139 17.0102 22.9176C16.207 23.1215 15.5184 23.2954 14.9442 23.4393C14.3699 23.5834 13.9857 23.6611 13.7911 23.6727C13.5967 23.6842 13.4219 23.6397 13.2667 23.5391C13.1117 23.4385 12.9529 23.3265 12.7907 23.2032C12.8164 23.4445 12.8609 23.6673 12.9246 23.8716C12.9883 24.0758 13.0554 24.2916 13.1261 24.5185C13.4513 25.5628 13.7856 26.4172 14.1287 27.0818C14.472 27.7463 14.7502 28.2819 14.9635 28.6883C15.1767 29.0946 15.2834 29.3975 15.2837 29.597C15.2839 29.7963 15.0924 29.9567 14.7091 30.0777C14.3484 30.1916 13.8824 30.0271 13.3111 29.5842C12.7399 29.1413 12.1673 28.5553 11.5937 27.8264C11.0199 27.0975 10.4775 26.2901 9.96641 25.4044C9.4553 24.5185 9.07947 23.6897 8.83905 22.9179C8.3724 21.4196 8.02676 19.8332 7.80234 18.1587C7.57797 16.4841 7.45399 14.9337 7.43067 13.5074C7.40727 12.081 7.47332 10.882 7.62877 9.91024C7.78416 8.93862 8.01968 8.40293 8.33526 8.30323C8.74111 8.17504 9.18354 8.08515 9.66265 8.03354C10.1418 7.98193 10.5995 7.98081 11.0358 8.03006C11.4721 8.07914 11.8566 8.20088 12.1894 8.39489C12.5223 8.58904 12.7417 8.85632 12.8478 9.19676C12.9115 9.4011 12.9185 9.74178 12.8689 10.2187C12.8194 10.6956 12.74 11.2755 12.6308 11.9583C12.5217 12.6411 12.4146 13.4104 12.3098 14.2664C12.205 15.1223 12.1475 16.0506 12.1373 17.0512C13.1429 16.3846 14.0796 15.4965 14.9473 14.3871C15.815 13.2777 16.5417 12.1131 17.1275 10.8932C17.7132 9.67347 18.1288 8.46374 18.3742 7.26419C18.6196 6.06464 18.6358 5.04345 18.4227 4.2007C18.2097 3.35771 17.7253 2.75653 16.9695 2.39686C16.2137 2.03712 15.1256 2.08157 13.7053 2.53016C11.947 3.08552 10.4236 3.87849 9.13509 4.90887C7.84656 5.93926 6.7487 7.06516 5.84164 8.28675C4.93463 9.50833 4.1914 10.7592 3.61205 12.0393C3.03273 13.3193 2.56003 14.4848 2.19395 15.5354C1.82796 16.5861 1.54736 17.454 1.35214 18.139C1.157 18.824 0.991734 19.1879 0.856414 19.2306C0.337979 19.3944 0.0551478 19.1222 0.00784066 18.414C-0.0394133 17.7057 0.126921 16.7494 0.506949 15.5446C0.886843 14.34 1.46015 12.9807 2.2267 11.467C2.99317 9.95319 3.91594 8.48365 4.99471 7.05817C6.07354 5.6327 7.2937 4.3434 8.65544 3.19023C10.0172 2.03696 11.487 1.21123 13.0649 0.712779C14.8008 0.164438 16.2042 0.0390279 17.275 0.33671C18.3457 0.634364 19.1405 1.2186 19.6594 2.08948C20.1782 2.96043 20.4577 4.05647 20.4979 5.37784C20.5381 6.69912 20.3938 8.10367 20.0647 9.59146C19.7359 11.0793 19.2459 12.5867 18.5949 14.1139C17.944 15.641 17.1999 17.0479 16.3627 18.3348C17.1632 18.2814 17.9579 18.2298 18.7472 18.18C19.5364 18.1302 20.2489 18.0922 20.8845 18.0659C21.7288 18.0735 22.6965 18.1792 23.7875 18.3832C24.8787 18.5871 25.9068 18.9667 26.8722 19.5221C27.8375 20.0774 28.6611 20.8334 29.3428 21.79C30.0245 22.7466 30.3711 23.9586 30.3825 25.4262C30.406 26.2168 30.2068 27.1274 29.785 28.1582C29.64 28.5125 29.4823 28.8912 29.3078 29.2801ZM118.192 12.6262C118.227 12.4568 118.295 12.3331 118.396 12.2553C118.497 12.1776 118.594 12.142 118.689 12.1485C118.783 12.1551 118.858 12.2098 118.914 12.3124C118.971 12.4151 118.982 12.5617 118.948 12.7522C118.932 12.8789 118.849 13.2553 118.697 13.8814C118.546 14.5075 118.342 15.2618 118.087 16.1444C117.831 17.027 117.536 17.9794 117.203 19.0017C116.869 20.0241 116.507 20.9847 116.117 21.8834C115.726 22.782 115.315 23.566 114.884 24.2353C114.452 24.9047 114.021 25.3219 113.59 25.4869C113.488 25.5542 113.323 25.5926 113.094 25.6021C112.594 25.623 112.155 25.489 111.778 25.2002C111.401 24.9113 111.063 24.5473 110.763 24.1081C110.464 23.669 110.209 23.1859 109.999 22.6589C109.79 22.132 109.613 21.6456 109.47 21.1999C109.326 20.7543 109.217 20.3807 109.142 20.0791C109.067 19.7777 109.009 19.6277 108.967 19.6295C108.925 19.6312 108.863 19.7547 108.779 19.9998C108.695 20.2449 108.582 20.5438 108.44 20.8963C108.298 21.2489 108.132 21.6393 107.941 22.0674C107.75 22.4956 107.526 22.8884 107.27 23.2457C107.013 23.6031 106.718 23.9095 106.384 24.165C106.051 24.4206 105.676 24.5571 105.259 24.5745C104.634 24.6006 104.047 24.5148 103.496 24.3172C102.945 24.1197 102.457 23.7882 102.031 23.3228C101.605 22.8574 101.262 22.2467 101.001 21.4908C100.741 20.7349 100.588 19.8116 100.543 18.721C100.5 17.6933 100.594 16.5444 100.823 15.2744C101.053 14.0042 101.431 12.8066 101.958 11.6816C102.486 10.5567 103.161 9.60401 103.984 8.8238C104.807 8.04365 105.802 7.62919 106.968 7.5804C107.781 7.54651 108.521 7.54179 109.19 7.56635C109.858 7.59096 110.443 7.7346 110.944 7.99721C111.445 8.25991 111.844 8.69499 112.14 9.30239C112.437 9.90973 112.608 10.7902 112.656 11.9437C112.66 12.0485 112.607 12.1506 112.496 12.2498C112.386 12.3489 112.258 12.4172 112.114 12.4548C111.969 12.4923 111.839 12.4873 111.722 12.4397C111.605 12.392 111.543 12.2843 111.536 12.1165C111.529 11.9278 111.502 11.6558 111.456 11.3005C111.41 10.9453 111.327 10.5864 111.208 10.2237C111.089 9.86102 110.935 9.5471 110.747 9.2818C110.559 9.01658 110.319 8.88997 110.027 8.90222C109.257 8.93436 108.536 9.28491 107.864 9.95373C107.193 10.6225 106.614 11.5029 106.127 12.5947C105.64 13.6865 105.268 14.9205 105.012 16.2968C104.756 17.673 104.657 19.0848 104.717 20.5319C104.729 20.8255 104.753 21.1502 104.788 21.5058C104.824 21.8615 104.884 22.1898 104.97 22.4909C105.055 22.792 105.175 23.0444 105.33 23.248C105.484 23.4516 105.676 23.5486 105.905 23.5391C106.051 23.533 106.221 23.3631 106.416 23.0292C106.611 22.6955 106.807 22.2619 107.004 21.7284C107.201 21.1949 107.391 20.6093 107.573 19.9714C107.755 19.3335 107.912 18.7072 108.043 18.0925C108.174 17.4777 108.281 16.9113 108.364 16.3931C108.447 15.8749 108.483 15.4794 108.472 15.2068C108.466 15.0601 108.469 14.8813 108.481 14.6707C108.493 14.4602 108.553 14.2633 108.66 14.0802C108.767 13.8972 108.943 13.7376 109.188 13.6012C109.433 13.465 109.795 13.3869 110.274 13.3668C111.232 13.3268 111.926 13.471 112.357 13.7997C112.788 14.1284 113.01 14.4605 113.024 14.796L113.045 15.2993C113.088 15.8438 113.128 16.5722 113.166 17.4845C113.204 18.3968 113.267 19.2975 113.356 20.1867C113.444 21.0759 113.565 21.8429 113.716 22.4879C113.868 23.1328 114.069 23.45 114.319 23.4396C114.423 23.4353 114.59 23.1814 114.819 22.6781C115.049 22.1749 115.3 21.5446 115.571 20.7874C115.842 20.0303 116.126 19.1991 116.423 18.2938C116.719 17.3885 116.992 16.5367 117.24 15.7386C117.489 14.9404 117.701 14.2539 117.875 13.6794C118.05 13.1049 118.155 12.7538 118.192 12.6262ZM98.2715 25.8749C98.3095 26.7977 98.3762 27.5302 98.4715 28.0725C98.5669 28.6147 98.663 29.0466 98.7597 29.3682C98.8563 29.6899 98.9443 29.9225 99.0232 30.0663C99.1021 30.21 99.1442 30.3448 99.1493 30.4707C99.1614 30.7643 98.9252 30.979 98.4405 31.1148C97.9558 31.2506 97.4123 31.226 96.8101 31.0411C96.2079 30.8562 95.6498 30.4751 95.1357 29.8978C94.6217 29.3206 94.3413 28.4657 94.2947 27.3331C94.248 26.2006 94.2497 24.9768 94.2998 23.6616C94.3499 22.3464 94.4126 21.0833 94.488 19.8721C94.5632 18.661 94.6334 17.5813 94.6987 16.6332C94.7639 15.6851 94.7888 15.0223 94.7732 14.6448C94.7577 14.2673 94.6822 13.9553 94.5469 13.7088C94.4116 13.4624 94.2571 13.2587 94.0836 13.0979C93.8884 12.917 93.6845 12.7784 93.4718 12.6823C93.1652 14.3548 92.9069 15.9308 92.6966 17.4102C92.5975 18.0446 92.5096 18.6942 92.4327 19.3593C92.3557 20.0243 92.2831 20.6681 92.2149 21.2907C92.1467 21.9133 92.0974 22.4879 92.0669 23.0144C92.0364 23.5408 92.0286 23.9824 92.0433 24.3389C92.0519 24.5486 91.9751 24.7094 91.8129 24.8212C91.8405 24.9882 91.7565 25.1019 91.5609 25.1627C91.3651 25.2234 91.0175 25.2641 90.5176 25.285C89.6221 25.3225 88.8904 25.0326 88.3225 24.4156C87.7546 23.7985 87.3033 22.9718 86.9685 21.9353C86.6337 20.8989 86.4019 19.7059 86.2734 18.3561C86.1447 17.0065 86.0768 15.6122 86.0698 14.1734C86.0626 12.7345 86.1084 11.3145 86.2071 9.9133C86.3059 8.51207 86.4098 7.23668 86.5188 6.08714C86.628 4.93761 86.7238 3.97251 86.8064 3.19168C86.8889 2.41091 86.9263 1.92616 86.9186 1.7374C86.9134 1.61156 86.8913 1.45487 86.8522 1.26747C86.8132 1.07998 86.8057 0.896471 86.8295 0.716908C86.8535 0.537318 86.9303 0.37652 87.0601 0.23465C87.1898 0.0926181 87.4109 0.0151147 87.7233 0.00203212C87.9315 -0.00662703 88.2296 0.0123802 88.6176 0.0591879C89.0054 0.106076 89.3794 0.195429 89.7395 0.327434C90.0996 0.459439 90.42 0.64037 90.7007 0.870333C90.9814 1.10014 91.1291 1.39339 91.1438 1.74995C91.1533 1.98058 91.1239 2.40726 91.0556 3.02989C90.9874 3.65249 90.8986 4.40726 90.7891 5.29425C90.6796 6.18115 90.5638 7.16813 90.4417 8.25522C90.3196 9.34228 90.2096 10.4709 90.1118 11.6409C90.014 12.8111 89.9428 13.9957 89.8984 15.1951C89.854 16.3945 89.8546 17.5499 89.9004 18.6615C89.9324 19.4375 90.013 20.1275 90.1422 20.7313C90.2714 21.3351 90.4288 21.8643 90.6144 22.3187C90.6952 21.7481 90.7984 21.0872 90.9239 20.3362C91.0494 19.5851 91.2001 18.812 91.376 18.0168C91.5518 17.2216 91.7333 16.4367 91.9205 15.6621C92.1076 14.8875 92.298 14.1915 92.4916 13.5741C92.6852 12.9567 92.8733 12.4604 93.0561 12.0852C93.2389 11.7098 93.4135 11.5187 93.5801 11.5118C93.8509 11.5005 94.2487 11.5363 94.7737 11.6195C95.2987 11.7026 95.8268 11.8591 96.3577 12.0891C96.8888 12.3189 97.3507 12.641 97.7432 13.0553C98.1358 13.4695 98.3451 13.9913 98.371 14.6205C98.3978 15.2706 98.4001 16.0846 98.3777 17.0625C98.3555 18.0403 98.335 19.0601 98.3161 20.1218C98.2972 21.1836 98.2775 22.2243 98.257 23.2442C98.2364 24.264 98.2412 25.1409 98.2715 25.8749ZM84.5312 9.87301C84.5416 10.1247 84.5155 10.504 84.453 11.0108C84.3903 11.5177 84.3152 12.0985 84.2275 12.7534C84.1397 13.4084 84.0432 14.1057 83.9381 14.8454C83.833 15.5851 83.7374 16.3034 83.6514 17.0003C83.5654 17.6972 83.4933 18.3515 83.4349 18.9632C83.3768 19.5748 83.3558 20.08 83.3722 20.4784C83.4215 21.6739 83.4901 22.5797 83.5781 23.1957C83.6661 23.8118 83.753 24.2757 83.8388 24.5872C83.9247 24.8987 84.0019 25.1266 84.0704 25.2708C84.1389 25.4149 84.1779 25.6024 84.1875 25.8331C84.197 26.0638 83.957 26.1894 83.4676 26.2098C82.9781 26.2304 82.4293 26.0747 81.8211 25.7429C81.2128 25.4112 80.6478 24.8623 80.1259 24.0963C79.6041 23.3303 79.316 22.2866 79.2615 20.9653C79.2252 20.0844 79.2243 19.1759 79.2587 18.2396C79.2931 17.3033 79.344 16.3872 79.4115 15.4915C79.4789 14.5958 79.5639 13.7467 79.6664 12.944C79.7689 12.1414 79.8597 11.4338 79.9388 10.8212C79.7339 11.4181 79.5083 12.147 79.2622 13.0082C79.016 13.8693 78.7621 14.7938 78.5002 15.7817C78.2384 16.7696 77.977 17.7679 77.7161 18.7767C77.4552 19.7856 77.1969 20.7312 76.9411 21.6138C76.6855 22.4964 76.4413 23.2787 76.2085 23.9606C75.9759 24.6426 75.7615 25.1348 75.5654 25.4371C75.5505 25.5848 75.4716 25.6932 75.3283 25.7622L75.2346 25.766C75.1114 25.8132 74.9873 25.8395 74.8623 25.8447C74.1125 25.876 73.4767 25.6346 72.9548 25.1208C72.433 24.6069 71.9994 23.958 71.6541 23.174C71.3733 22.5361 71.1453 21.8475 70.9708 21.1077C70.8762 21.3505 70.7781 21.5959 70.6762 21.8441C70.3824 22.5601 70.0703 23.214 69.74 23.8055C69.4097 24.397 69.0647 24.8841 68.7049 25.2669C68.3451 25.6495 67.9883 25.8483 67.6342 25.8631L67.5717 25.8657C66.5512 25.9083 65.7258 25.6224 65.0954 25.008C64.4651 24.3935 63.9747 23.6315 63.6243 22.7218C63.2738 21.812 63.0313 20.861 62.8965 19.8686C62.7617 18.8764 62.6793 18.0132 62.649 17.2792C62.6118 16.3774 62.5955 15.6007 62.5999 14.9493C62.6044 14.2978 62.6236 13.7508 62.6575 13.3081C62.6914 12.8655 62.7181 12.502 62.7377 12.2175C62.7573 11.9331 62.7632 11.6965 62.7554 11.5078C62.7416 11.1722 62.9367 10.9697 63.3406 10.9004C63.7446 10.8309 64.1999 10.8697 64.7066 11.0166C65.2134 11.1635 65.6766 11.391 66.0961 11.699C66.5156 12.0072 66.7335 12.3605 66.75 12.759C66.7621 13.0526 66.7651 13.3781 66.7589 13.7355C66.7528 14.0929 66.7476 14.4713 66.7431 14.8706C66.7388 15.27 66.7341 15.6641 66.7292 16.053C66.7244 16.4418 66.7289 16.8041 66.7427 17.1396C66.8127 18.8384 66.9999 20.2171 67.3043 21.2759C67.6088 22.3347 67.9089 23.1625 68.2047 23.7594C68.4086 23.6458 68.6334 23.4053 68.8791 23.0379C69.1247 22.6705 69.3734 22.2504 69.6252 21.7777C69.8769 21.305 70.1169 20.8012 70.3452 20.2665C70.456 20.007 70.562 19.754 70.6635 19.5074C70.5752 18.9665 70.5051 18.4458 70.453 17.9457C70.3667 17.1195 70.317 16.4177 70.3036 15.8406C70.2903 15.2634 70.2819 14.9328 70.2785 14.8489C70.2724 14.7021 70.2527 14.6032 70.2192 14.552C70.1858 14.501 70.1421 14.4502 70.0878 14.4C70.0336 14.3497 69.9897 14.2991 69.9564 14.2479C69.923 14.1968 69.9033 14.0978 69.8972 13.951C69.8912 13.8042 70.1259 13.6788 70.6014 13.5749C71.077 13.471 71.6022 13.4333 72.1771 13.4618C72.7521 13.4903 73.2839 13.6151 73.7729 13.8363C74.2619 14.0575 74.5167 14.4197 74.5375 14.9231C74.5443 15.0909 74.552 15.4005 74.5601 15.8518C74.5683 16.3031 74.5729 16.7967 74.5741 17.3324C74.5753 17.8681 74.5812 18.3878 74.5915 18.8915C74.6018 19.3953 74.6121 19.773 74.6225 20.0247C74.6398 20.4442 74.6714 20.8315 74.7174 21.1867C74.7633 21.542 74.8136 21.8761 74.8682 22.1888C75.0279 21.5099 75.2307 20.7346 75.4765 19.8629C75.7222 18.9913 75.9872 18.0821 76.2716 17.1354C76.5559 16.1885 76.8665 15.2459 77.2034 14.3075C77.5403 13.369 77.8851 12.4985 78.238 11.6959C78.5909 10.8934 78.9535 10.2006 79.3259 9.61784C79.6983 9.03505 80.0676 8.63099 80.4338 8.40559C80.4737 8.36192 80.5553 8.31645 80.6786 8.26927C80.7401 8.2457 80.7968 8.22763 80.8484 8.21493C80.9 8.20225 80.9572 8.19458 81.0197 8.19198C81.1237 8.18766 81.2226 8.18348 81.3164 8.17959C81.4101 8.17565 81.5095 8.18203 81.6144 8.19868C82.0935 8.17868 82.3872 8.21889 82.4957 8.31943C83.0016 8.44535 83.4634 8.64134 83.8812 8.90752C84.299 9.17365 84.5156 9.49557 84.5312 9.87301ZM67.735 8.53175C67.7549 9.01406 67.6175 9.35072 67.3228 9.54163C67.0283 9.7325 66.6563 9.82156 66.2073 9.8088C65.7582 9.79612 65.2642 9.70644 64.7254 9.53986C64.1865 9.3733 63.6876 9.16301 63.2285 8.90913C62.7696 8.65515 62.3828 8.38251 62.0682 8.09099C61.7538 7.79948 61.5909 7.5174 61.5797 7.24473C61.5632 6.8463 61.6288 6.53891 61.7763 6.32265C61.9239 6.10644 62.1259 5.94564 62.3824 5.84039C62.6388 5.73522 62.9438 5.66986 63.2974 5.64455C63.6511 5.61933 64.0257 5.59844 64.4215 5.58188C64.7964 5.56622 65.1808 5.6552 65.5747 5.84883C65.9686 6.04239 66.3231 6.29026 66.638 6.59218C66.953 6.89418 67.2115 7.21958 67.4137 7.56822C67.6158 7.9169 67.7229 8.23812 67.735 8.53175ZM58.1298 8.61276C58.5672 8.59445 59.0049 8.58668 59.4431 8.58936C59.8813 8.5921 60.2858 8.65925 60.6563 8.7908C61.0268 8.92243 61.3337 9.15641 61.5771 9.49291C61.8205 9.82939 61.9555 10.3227 61.9823 10.9729C62.009 11.6231 61.9936 12.2592 61.9358 12.8813C61.878 13.5036 61.7703 14.0543 61.6126 14.5336C61.4551 15.0129 61.2418 15.4051 60.9727 15.7105C60.7036 16.0159 60.3713 16.1768 59.9755 16.1934C59.1841 16.2265 58.5226 16.1228 57.9912 15.8824C57.4597 15.6419 57.1866 15.3435 57.1719 14.9869C57.165 14.8192 57.1798 14.5454 57.2164 14.1658C57.2529 13.7861 57.2945 13.4062 57.3415 13.0261C57.4067 12.5822 57.4805 12.0959 57.563 11.5672C56.9337 13.0011 56.3768 14.4214 55.8923 15.8282C55.6882 16.446 55.4851 17.0848 55.2828 17.7446C55.0804 18.4043 54.899 19.0631 54.7384 19.7211C54.5777 20.3791 54.4427 21.0255 54.3332 21.6603C54.2238 22.2952 54.1702 22.8962 54.1728 23.4633C54.2795 24.0261 54.3876 24.4995 54.4973 24.8836C54.607 25.2677 54.7087 25.5839 54.8024 25.832C54.8961 26.0802 54.9722 26.2819 55.0307 26.437C55.0893 26.5921 55.1212 26.7326 55.1263 26.8584C55.1324 27.0053 55.0133 27.152 54.7689 27.2988C54.5246 27.4456 54.2087 27.5008 53.8213 27.4645C53.4339 27.4281 53.015 27.2618 52.5646 26.9655C52.1143 26.6691 51.6807 26.1463 51.2639 25.3969C50.851 24.6546 50.4937 23.6471 50.192 22.3746C50.1479 22.4845 50.1032 22.5947 50.0577 22.7056C49.7639 23.4217 49.4518 24.0755 49.1214 24.6671C48.7912 25.2586 48.4462 25.7458 48.0864 26.1284C47.7267 26.5111 47.3697 26.7099 47.0157 26.7247L46.9532 26.7273C45.9327 26.7699 45.1073 26.484 44.4769 25.8695C43.8466 25.2551 43.3562 24.4931 43.0058 23.5833C42.8223 23.1071 42.6684 22.6197 42.544 22.1209C42.5095 22.1957 42.4744 22.2708 42.4384 22.3464C42.1025 23.0538 41.6967 23.7116 41.2211 24.3197C40.7454 24.9278 40.1874 25.4342 39.5468 25.8392C38.9064 26.2442 38.18 26.4636 37.3677 26.4976C36.2848 26.5428 35.302 26.3633 34.4196 25.959C33.5371 25.5546 32.7848 25.0188 32.1628 24.3515C31.5407 23.6842 31.0563 22.9429 30.7098 22.1275C30.3633 21.3122 30.1736 20.506 30.1408 19.709C30.0984 18.6814 30.1721 17.6856 30.3619 16.7218C30.5517 15.758 30.7967 14.8706 31.0972 14.0597C31.3976 13.2488 31.7283 12.5417 32.0894 11.9383C32.4504 11.335 32.7812 10.88 33.0815 10.5734C33.3827 10.2876 33.7803 10.0662 34.2745 9.90896C34.7688 9.75172 35.2708 9.65728 35.7807 9.62543C36.2905 9.59358 36.7758 9.59959 37.2365 9.64336C37.6973 9.68714 38.0553 9.76671 38.3104 9.88215C38.7989 10.0928 39.2078 10.5221 39.537 11.1701C39.8662 11.8182 40.049 12.5826 40.0853 13.4635C40.1535 15.1203 39.8615 16.3879 39.2093 17.266C38.557 18.144 37.7205 18.6044 36.7 18.6471C36.3251 18.6628 35.933 18.6372 35.5233 18.5702C35.1138 18.5033 34.7402 18.4244 34.4026 18.3334C34.3721 19.112 34.4662 19.8749 34.6847 20.6221C34.9032 21.3693 35.1861 22.0298 35.5331 22.6035C35.8801 23.1773 36.2746 23.6387 36.7167 23.9879C37.1588 24.3371 37.5985 24.5025 38.0358 24.4843C38.7023 24.4564 39.2896 24.2796 39.7977 23.9537C40.3059 23.6278 40.7536 23.2258 41.1406 22.7474C41.5277 22.269 41.8507 21.7513 42.1093 21.1942C42.1712 21.0612 42.2305 20.9299 42.2877 20.8L42.278 20.7302C42.1432 19.738 42.0607 18.8748 42.0305 18.1407C41.9933 17.2389 41.977 16.4623 41.9814 15.8108C41.9859 15.1594 42.005 14.6123 42.0389 14.1697C42.0729 13.7271 42.0996 13.3636 42.1192 13.0791C42.1388 12.7947 42.1447 12.5581 42.1369 12.3694C42.123 12.0338 42.3181 11.8313 42.7221 11.7619C43.1261 11.6925 43.5814 11.7312 44.0882 11.8781C44.5949 12.0251 45.0581 12.2525 45.4776 12.5606C45.8971 12.8688 46.115 13.222 46.1315 13.6205C46.1436 13.9141 46.1466 14.2396 46.1404 14.5971C46.1343 14.9545 46.129 15.3329 46.1246 15.7322C46.1202 16.1315 46.1156 16.5257 46.1107 16.9145C46.1059 17.3034 46.1104 17.6656 46.1243 18.0012C46.1942 19.7 46.3814 21.0787 46.6858 22.1375C46.9903 23.1962 47.2904 24.024 47.5862 24.6209C47.7901 24.5074 48.0149 24.2669 48.2606 23.8994C48.5062 23.532 48.7549 23.112 49.0067 22.6392C49.2584 22.1665 49.4984 21.6628 49.7267 21.128C49.7823 20.9978 49.8367 20.8692 49.89 20.7422C49.7508 19.7587 49.655 18.6284 49.6024 17.3516C49.5695 16.5547 49.5601 15.6937 49.5741 14.7687C49.5882 13.8437 49.6363 12.9856 49.7184 12.1944C49.8006 11.4031 49.9245 10.7414 50.0904 10.2092C50.2563 9.67704 50.4745 9.40536 50.7453 9.39404C51.8074 9.34965 52.5929 9.55315 53.1019 10.0046C53.6107 10.456 53.879 11.0173 53.9066 11.6885C53.9196 12.003 53.9024 12.3452 53.855 12.7148C53.8077 13.0845 53.7512 13.4859 53.6856 13.9194C53.6201 14.3528 53.5663 14.8225 53.5246 15.3285C53.4829 15.8344 53.4741 16.381 53.4983 16.9682C53.5459 18.1218 53.619 19.1377 53.7178 20.0159C53.8142 19.3186 53.9602 18.5561 54.1556 17.7286C54.3509 16.9011 54.5721 16.0672 54.8192 15.2271C55.0662 14.3869 55.3351 13.5721 55.626 12.7826C55.9168 11.9931 56.2061 11.293 56.4939 10.6822C56.7816 10.0714 57.0638 9.57642 57.3402 9.19722C57.6166 8.81809 57.8798 8.62317 58.1298 8.61276ZM47.1165 9.39327C47.1364 9.87569 46.999 10.2123 46.7043 10.4032C46.4097 10.594 46.0378 10.6832 45.5888 10.6704C45.1397 10.6576 44.6457 10.568 44.1069 10.4014C43.568 10.2349 43.0691 10.0246 42.6101 9.77065C42.1511 9.51678 41.7643 9.24402 41.4497 8.95251C41.1353 8.6611 40.9723 8.37899 40.9612 8.10635C40.9447 7.70784 41.0103 7.40046 41.1578 7.18425C41.3054 6.96798 41.5075 6.80724 41.7639 6.70199C42.0203 6.59682 42.3253 6.53146 42.679 6.50615C43.0326 6.48093 43.4072 6.45996 43.803 6.44347C44.1778 6.42782 44.5623 6.5168 44.9562 6.71035C45.3501 6.90399 45.7046 7.15181 46.0195 7.45381C46.3345 7.75572 46.593 8.08118 46.7952 8.42985C46.9972 8.77849 47.1044 9.09963 47.1165 9.39327ZM37.2205 12.2912C36.8039 12.3086 36.4351 12.471 36.114 12.7786C35.7929 13.0861 35.5173 13.4863 35.2872 13.9791C35.0572 14.472 34.8718 15.0364 34.7312 15.6725C34.5904 16.3087 34.4927 16.9746 34.4379 17.6702C35.1164 17.936 35.692 17.9801 36.1645 17.8029C36.6371 17.6256 37.0216 17.3363 37.3179 16.9353C37.6143 16.5342 37.8244 16.0633 37.9482 15.5224C38.072 14.9816 38.124 14.4699 38.104 13.9875C38.0842 13.5051 37.9996 13.099 37.8504 12.769C37.7012 12.4391 37.4913 12.2798 37.2205 12.2912ZM21.6147 32.2934C17.8733 33.0198 13.4454 34.4174 11.04 37.0936C10.7254 37.5544 10.6433 37.8671 10.7936 38.0316C10.9439 38.1959 11.3911 38.1607 12.1349 37.9259C13.2621 37.5698 14.4388 37.0547 15.665 36.3806C16.8911 35.7066 18.0982 34.9513 19.2862 34.1147C20.1863 33.4809 20.7861 32.9977 21.6147 32.2934L21.6147 32.2934Z" transform="translate(0 14.205444)" id="Fill-30" fill="#EA882D" fill-rule="evenodd" stroke="none" />
    <path d="M5.24132 1.95447C5.23227 1.83745 5.2064 1.71716 5.16098 1.59472C5.11652 1.4714 5.05976 1.35063 4.99012 1.23353C4.9204 1.11461 4.84333 1.0041 4.75896 0.902205C4.67537 0.799234 4.58911 0.708889 4.50126 0.631976C4.2861 0.443673 4.06953 0.297084 3.85145 0.192048C3.63411 0.0862079 3.42251 0.0250309 3.21747 0.00580916C3.01054 -0.0131981 2.8175 0.0145487 2.63632 0.0874143C2.4543 0.15961 2.29207 0.278907 2.14839 0.447399C2.03133 0.58297 1.94569 0.729639 1.89242 0.886388C1.83936 1.04499 1.82222 1.21506 1.84035 1.39958C1.85912 1.58317 1.91694 1.78252 2.01344 1.99597C2.05359 2.08071 2.10068 2.17652 2.15819 2.28475C2.21494 2.3922 2.27365 2.5049 2.33629 2.62253C2.39893 2.74017 2.45877 2.85537 2.51588 2.96989C2.5721 3.08359 2.62162 3.18975 2.66185 3.28776C2.70199 3.3858 2.7247 3.47175 2.73157 3.54552C2.73844 3.61941 2.73314 3.68262 2.71586 3.7368C2.6976 3.79039 2.67271 3.83629 2.63927 3.87315C2.61089 3.90787 2.57181 3.93977 2.52035 3.96913C2.46964 3.9992 2.40404 4.01623 2.32519 4.01821C2.24724 4.02103 2.15419 3.99754 2.0456 3.95036C1.93587 3.9024 1.80979 3.81835 1.66784 3.69745C1.56587 3.60823 1.46921 3.50708 1.3779 3.39416C1.28576 3.28031 1.20099 3.1598 1.12531 3.03244C1.04797 2.90523 0.982695 2.77526 0.927827 2.64296C0.872214 2.51157 0.83071 2.38262 0.803476 2.25633L0 2.52525C0.0424087 2.69296 0.111306 2.87558 0.207678 3.07407C0.303969 3.27243 0.424939 3.47092 0.570508 3.66949C0.716982 3.86881 0.885179 4.05239 1.07702 4.22201C1.33413 4.44535 1.57817 4.60776 1.80843 4.71011C2.03956 4.81325 2.25477 4.86445 2.45422 4.86544C2.65375 4.86643 2.83449 4.82625 2.9984 4.74478C3.16231 4.66339 3.30652 4.55151 3.42992 4.40661C3.56273 4.25659 3.6529 4.10081 3.70239 3.94071C3.751 3.77983 3.7621 3.61104 3.73388 3.43253C3.70654 3.25495 3.64513 3.06549 3.5495 2.86435C3.52671 2.81464 3.49767 2.75127 3.46085 2.67602C3.42486 2.5998 3.38492 2.51865 3.34198 2.43142C3.29987 2.34324 3.25687 2.25601 3.21476 2.16794C3.17174 2.08071 3.13274 1.99849 3.09589 1.92323C3.05998 1.84884 3.03093 1.78547 3.00732 1.73493C2.95583 1.61386 2.92293 1.50741 2.90943 1.41446C2.89615 1.3235 2.89857 1.24455 2.91675 1.17782C2.93312 1.11126 2.96257 1.05434 3.0042 1.00799C3.07009 0.931775 3.15182 0.882689 3.25059 0.861564C3.34824 0.839661 3.45616 0.849687 3.57405 0.890034C3.69358 0.930247 3.81665 1.00654 3.94465 1.11689C4.05785 1.21597 4.15685 1.32755 4.24196 1.45165C4.32777 1.57475 4.39629 1.7008 4.44738 1.82986C4.49855 1.95897 4.5282 2.08245 4.53635 2.20046L5.24132 1.95447ZM9.40278 3.9128L8.49434 5.56313L6.45888 4.42691L7.3673 2.77663L6.52189 2.30472L4.20762 6.50902L5.05305 6.98093L6.0768 5.12109L8.11221 6.25726L7.08846 8.1171L7.93389 8.58901L10.2482 4.38471L9.40278 3.9128ZM12.077 10.0402C12.3844 10.1335 12.674 10.1783 12.9451 10.1731C13.2151 10.1675 13.4654 10.1193 13.6956 10.027C13.9255 9.9359 14.134 9.80831 14.3185 9.64454C14.5033 9.47964 14.6631 9.28617 14.7999 9.06207C14.9354 8.83758 15.0444 8.58925 15.1271 8.3172C15.2281 7.98032 15.2686 7.65476 15.2462 7.33992C15.225 7.02546 15.1456 6.7322 15.0073 6.4625C14.8688 6.19281 14.6748 5.957 14.4263 5.75516C14.1767 5.55311 13.8745 5.39604 13.5205 5.28585C13.1705 5.17937 12.8376 5.14076 12.5203 5.16972C12.2035 5.19738 11.9137 5.28561 11.6492 5.43129C11.3843 5.57804 11.1559 5.77532 10.9626 6.02373C10.7705 6.27254 10.6221 6.56486 10.5195 6.89863C10.4058 7.2773 10.3563 7.63264 10.3728 7.96657C10.3885 8.29894 10.4651 8.60172 10.6011 8.87468C10.7377 9.14633 10.9305 9.38184 11.1788 9.57966C11.4272 9.77754 11.7266 9.93096 12.077 10.0402ZM13.2836 6.06622C13.5 6.13423 13.6809 6.23423 13.8246 6.36723C13.9686 6.49899 14.0771 6.6537 14.1504 6.83032C14.2226 7.00653 14.2623 7.19623 14.2654 7.39944C14.27 7.60179 14.2399 7.80789 14.1765 8.01665C14.1116 8.2342 14.0241 8.43301 13.9142 8.61584C13.8055 8.79897 13.6724 8.95111 13.5183 9.07467C13.363 9.19778 13.1859 9.27759 12.9853 9.31504C12.7847 9.35244 12.5612 9.33321 12.314 9.25973C12.1023 9.1933 11.9269 9.09231 11.7863 8.95765C11.6445 8.8227 11.5402 8.66265 11.4697 8.47655C11.4004 8.29082 11.366 8.08836 11.3668 7.86808C11.3672 7.649 11.4027 7.42107 11.4745 7.18475C11.5724 6.86656 11.711 6.61038 11.8885 6.41449C12.0667 6.2201 12.2752 6.09249 12.5128 6.03126C12.75 5.97121 13.0071 5.98247 13.2836 6.06622L13.2836 6.06622ZM17.4594 9.24512L18.215 9.31171C18.5076 9.33624 18.7653 9.32005 18.9879 9.2633C19.2118 9.2066 19.4002 9.11419 19.5555 8.9876C19.7095 8.8609 19.8301 8.7049 19.9171 8.51963C20.0039 8.33564 20.0569 8.12729 20.0769 7.89732C20.0983 7.66503 20.0858 7.45093 20.0407 7.25405C19.9956 7.05714 19.9099 6.88428 19.7861 6.73306C19.6624 6.58183 19.4928 6.45918 19.2784 6.36388C19.064 6.26857 18.7969 6.20748 18.4797 6.17823L16.7761 6.02813L16.3601 10.8168L17.3155 10.901L17.4594 9.24512ZM17.5236 8.50671L17.6674 6.85083L18.3934 6.91474C18.5845 6.93283 18.7334 6.98101 18.8385 7.0605C18.9447 7.1399 19.0154 7.24266 19.053 7.36871C19.0894 7.49463 19.1006 7.6372 19.0856 7.79497C19.0706 7.96778 19.0305 8.11458 18.964 8.23527C18.8975 8.35594 18.804 8.4454 18.682 8.50352C18.5612 8.5618 18.4125 8.58378 18.2347 8.56933L17.5236 8.50671ZM27.6727 6.8519L25.5785 7.22373L25.6998 7.91687L26.2051 7.82711C26.2282 7.87247 26.2458 7.93016 26.2564 7.99794C26.266 8.06724 26.2685 8.14659 26.2615 8.23535C26.2583 8.29666 26.25 8.36409 26.2374 8.43596C26.2249 8.50786 26.2055 8.58354 26.1775 8.66075C26.1695 8.65839 26.1628 8.65582 26.1569 8.6518C26.1515 8.64898 26.1443 8.64389 26.1356 8.6378C25.9054 8.52282 25.6919 8.4036 25.4938 8.27782C25.2956 8.15214 25.1186 8.02515 24.9638 7.8955C24.8092 7.76709 24.6812 7.64026 24.58 7.51509C24.5226 7.44541 24.4761 7.37389 24.4397 7.30298C24.4047 7.23194 24.3787 7.16309 24.3635 7.09736C24.326 6.87592 24.3518 6.70022 24.4394 6.56808C24.5284 6.43698 24.6731 6.3505 24.8744 6.3071C24.9657 6.2897 25.0574 6.28857 25.1484 6.30535C25.2404 6.32071 25.3236 6.35026 25.3997 6.39002C25.4747 6.42991 25.5347 6.47754 25.5782 6.53197C25.5791 6.53044 25.5963 6.51349 25.6298 6.48218C25.6634 6.4509 25.7042 6.41076 25.7539 6.36388C25.8023 6.3172 25.852 6.2704 25.9016 6.22359C25.9499 6.17571 25.9909 6.13681 26.0244 6.1055C26.0577 6.0729 26.0751 6.05716 26.0762 6.05579C26.0145 5.96279 25.9313 5.88245 25.8286 5.81331C25.7246 5.74431 25.606 5.69195 25.4698 5.65401C25.354 5.62514 25.2338 5.60721 25.1092 5.60024C24.9847 5.59316 24.8611 5.59863 24.7384 5.61664C24.5378 5.6497 24.3617 5.7076 24.2108 5.78755C24.06 5.86757 23.9324 5.96499 23.8302 6.07815C23.7269 6.19281 23.6467 6.31728 23.5897 6.45157C23.534 6.58569 23.4992 6.72491 23.4862 6.86656C23.4747 7.00929 23.4828 7.14856 23.5132 7.28636C23.5178 7.31212 23.5232 7.33649 23.531 7.35922C23.5375 7.38209 23.5455 7.40603 23.5537 7.43118C23.327 7.61723 23.1414 7.81481 22.9995 8.02507C22.8562 8.2342 22.758 8.44934 22.7044 8.66788C22.6511 8.88774 22.6448 9.10432 22.6838 9.31914C22.7334 9.56629 22.8278 9.78263 22.97 9.96903C23.1108 10.1557 23.287 10.3068 23.495 10.4232C23.7043 10.5406 23.9344 10.6189 24.1854 10.6581C24.4354 10.6985 24.6951 10.6942 24.9625 10.648C25.1836 10.6101 25.4026 10.5382 25.6223 10.4345C25.8407 10.3311 26.0515 10.1911 26.2561 10.0153C26.2949 9.97801 26.3336 9.94077 26.3722 9.90225C26.4109 9.86493 26.4492 9.82518 26.4874 9.78421C26.744 9.88437 26.9923 9.96571 27.2312 10.0298C27.4703 10.0937 27.6915 10.1355 27.8967 10.1574L27.9933 9.24308C27.8458 9.22751 27.6844 9.19657 27.5077 9.15067C27.3301 9.10615 27.1451 9.04899 26.9505 8.97969C26.9693 8.93578 26.9848 8.89503 26.9996 8.85696C27.013 8.81905 27.0248 8.77892 27.0362 8.73635C27.0719 8.60968 27.0928 8.4843 27.1 8.36012C27.1069 8.23466 27.1024 8.11512 27.0848 8.00038C27.0673 7.88569 27.0402 7.78151 27.0033 7.68538L27.7941 7.54495L27.6727 6.8519ZM24.0056 9.62419C23.9248 9.56513 23.8536 9.489 23.7896 9.39651C23.727 9.30501 23.6776 9.20228 23.6426 9.08934C23.6066 8.97658 23.5888 8.86069 23.59 8.73879C23.5928 8.61788 23.6172 8.49829 23.6656 8.37942C23.714 8.26058 23.7904 8.15069 23.8955 8.0471C23.8962 8.05083 23.8966 8.05327 23.8981 8.05434C23.8983 8.05555 23.9012 8.05758 23.9055 8.06056C24.0339 8.219 24.19 8.37752 24.3718 8.53917C24.5536 8.70072 24.7598 8.85803 24.9882 9.01258C25.2164 9.16596 25.4657 9.31048 25.7337 9.44667C25.738 9.4497 25.7435 9.45251 25.7503 9.45511C25.757 9.45769 25.7626 9.46058 25.7669 9.46361C25.6674 9.57122 25.5482 9.65953 25.4095 9.72974C25.2708 9.79995 25.1227 9.84531 24.963 9.86737C24.803 9.8881 24.6406 9.88027 24.4779 9.84199C24.3139 9.80392 24.1565 9.7318 24.0056 9.62419L24.0056 9.62419ZM32.0719 5.57112L32.4504 6.25871L33.2438 5.8158L33.6403 6.53615C33.5763 6.6233 33.4978 6.70705 33.4046 6.78761C33.3115 6.86809 33.2091 6.93951 33.0975 7.00176C32.7906 7.1703 32.4979 7.25376 32.2195 7.25223C31.9414 7.24912 31.6879 7.16947 31.4582 7.01224C31.2276 6.85562 31.0327 6.63054 30.8694 6.33645C30.7456 6.10885 30.6731 5.88961 30.6516 5.68047C30.631 5.47072 30.6532 5.2743 30.7198 5.0916C30.7864 4.90893 30.8887 4.74196 31.0288 4.5924C31.1673 4.44232 31.3354 4.31284 31.5315 4.20341C31.6637 4.12673 31.7969 4.0651 31.9297 4.01813C32.0637 3.97049 32.1905 3.93827 32.3129 3.92133C32.4353 3.9043 32.544 3.90353 32.6411 3.91781L32.7647 3.06123C32.5783 3.0341 32.3912 3.03144 32.2014 3.05469C32.0109 3.0768 31.8247 3.11943 31.6399 3.18259C31.4561 3.24522 31.2793 3.32545 31.1092 3.42046C30.8176 3.5859 30.5715 3.77192 30.3716 3.97762C30.1706 4.18394 30.0145 4.40235 29.9024 4.63618C29.7896 4.86895 29.7187 5.10825 29.6904 5.35523C29.6619 5.60219 29.6735 5.84972 29.725 6.09775C29.7777 6.34519 29.8683 6.58706 29.998 6.82278C30.177 7.14811 30.3899 7.41879 30.6365 7.63508C30.8819 7.85188 31.1535 8.00563 31.4509 8.09788C31.7477 8.19187 32.0626 8.21581 32.3964 8.17082C32.7301 8.12576 33.0761 8.00539 33.4311 7.80864C33.6234 7.69982 33.7927 7.58538 33.9419 7.46227C34.0897 7.33971 34.2183 7.21802 34.3246 7.09728C34.4305 6.97546 34.5173 6.86284 34.5827 6.75775C34.6481 6.65279 34.6938 6.56312 34.72 6.48996L33.7107 4.65631L32.0719 5.57112ZM38.4644 4.56779C38.713 4.36345 38.9119 4.14663 39.0592 3.91736C39.2055 3.68884 39.3058 3.45282 39.3586 3.2091C39.4121 2.96633 39.4237 2.72087 39.3921 2.47533C39.3596 2.22874 39.2897 1.98707 39.1816 1.74769C39.0726 1.50902 38.9292 1.27905 38.7514 1.05799C38.5306 0.785267 38.2852 0.569431 38.0135 0.411985C37.7427 0.253842 37.4569 0.156178 37.1575 0.120925C36.8581 0.0856717 36.5554 0.115751 36.2504 0.210304C35.9444 0.305743 35.6461 0.470267 35.3574 0.70409C35.074 0.936708 34.8561 1.1931 34.7025 1.47414C34.5482 1.75415 34.4587 2.04543 34.4308 2.34775C34.4035 2.65087 34.4382 2.95188 34.5345 3.25213C34.632 3.55177 34.7897 3.83902 35.007 4.11137C35.2552 4.41801 35.52 4.65808 35.8041 4.83102C36.0866 5.00375 36.3787 5.10916 36.6795 5.14814C36.9795 5.18607 37.2813 5.1568 37.583 5.06007C37.8848 4.9634 38.1784 4.79925 38.4644 4.56779ZM35.8674 1.33833C36.0444 1.19562 36.2279 1.10053 36.4177 1.05496C36.6068 1.00845 36.7947 1.00443 36.9812 1.04188C37.1666 1.08019 37.345 1.15313 37.514 1.26415C37.6832 1.37345 37.8359 1.51387 37.9724 1.68357C38.1153 1.85932 38.23 2.04355 38.319 2.23754C38.409 2.43072 38.4599 2.62685 38.4754 2.82467C38.4899 3.02308 38.4565 3.21565 38.3753 3.40403C38.2939 3.59241 38.1531 3.7682 37.9543 3.93355C37.7812 4.07314 37.6 4.16314 37.4105 4.20515C37.2201 4.24801 37.0301 4.24566 36.8375 4.20035C36.6458 4.1544 36.4598 4.06995 36.2789 3.9461C36.0988 3.82321 35.9311 3.66614 35.7766 3.47411C35.5694 3.21444 35.436 2.95536 35.3739 2.69768C35.3136 2.44029 35.3252 2.19478 35.4076 1.96224C35.4908 1.73062 35.6438 1.52231 35.8674 1.33833L35.8674 1.33833Z" transform="translate(39.52661 52.085938)" id="Fill-31" fill="#636463" fill-rule="evenodd" stroke="none" />
    <path d="M7.98375 1.89107C8.2066 1.89107 8.38726 2.07291 8.38726 2.29741C8.38726 2.34952 8.37562 2.39877 8.35978 2.4452L6.93524 6.60664C6.87766 6.77497 6.72131 6.88121 6.5537 6.88121L1.83336 6.88126C1.65015 6.88126 1.50285 6.75574 1.44609 6.58977L0.0218751 2.42909C-0.0688258 2.16412 0.134992 1.89129 0.40342 1.89129L2.31559 1.89121L2.31559 1.89115C2.31559 1.36908 2.52591 0.896182 2.86571 0.553971C3.20554 0.211787 3.67507 0 4.19358 0C4.7121 0 5.18163 0.211787 5.52143 0.553971C5.86126 0.896182 6.07157 1.369 6.07157 1.89115L7.98375 1.89107ZM2.92074 1.89121L5.46643 1.89115C5.46643 1.53725 5.32387 1.2167 5.09364 0.984864C4.86331 0.752917 4.54502 0.609384 4.19358 0.609384C3.84215 0.609384 3.52383 0.752917 3.29352 0.984864C3.06327 1.2167 2.92074 1.53725 2.92074 1.89115L2.92074 1.89121Z" transform="translate(55.29004 3.6567383)" id="Fill-32" fill="#636463" fill-rule="evenodd" stroke="none" />
    <path d="M27.0678 0.741765C23.1923 3.34187 18.5392 4.85883 13.5342 4.85883C8.53304 4.85883 3.88275 3.34543 0.00926443 0.749003L0 0.742917L0.538189 8.04255e-05L0.548545 0.0069166C4.27056 2.49249 8.73439 3.94077 13.5342 3.94077C18.3381 3.94077 22.8054 2.4893 26.5298 0L26.5305 0.000160851L27.0678 0.741765Z" transform="translate(45.949463 51.374023)" id="Fill-33" fill="#636463" fill-rule="evenodd" stroke="none" />
  </g>
</svg>